<?xml version="1.0" encoding="UTF-8"?>
<!DOCTYPE svg PUBLIC "-//W3C//DTD SVG 1.1//EN" "http://www.w3.org/Graphics/SVG/1.1/DTD/svg11.dtd">
<!-- Creator: CorelDRAW X8 -->
<svg xmlns="http://www.w3.org/2000/svg" xml:space="preserve" width="2000px" height="2062px" version="1.1" shape-rendering="geometricPrecision" text-rendering="geometricPrecision" image-rendering="optimizeQuality" fill-rule="evenodd" clip-rule="evenodd"
viewBox="0 0 2000 2063"
 xmlns:xlink="http://www.w3.org/1999/xlink">
 <g id="Слой_x0020_1">
  <metadata id="CorelCorpID_0Corel-Layer"/>
  <g id="_654103824">
   <path fill="darkorange" d="M5 896c0,190 42,342 121,475 71,119 154,211 264,291 115,83 253,135 398,158 173,27 346,-15 522,-15 181,0 249,3 416,86 25,13 44,23 65,37 48,32 102,67 144,107 45,43 54,4 54,3 0,-41 -166,-187 -217,-224 -82,-61 -193,-105 -308,-133 -60,-15 -118,-24 -173,-47 -148,-59 -245,-147 -325,-284 -8,-15 -9,-24 -31,-26 0,17 -4,19 -4,53l9 115c3,21 6,23 -9,26 -22,4 -122,-11 -154,-19 -89,-22 -192,-71 -251,-128 -10,-10 -14,-11 -24,-20 -17,-15 -24,-28 -40,-44 -155,-162 -182,-437 -91,-640 14,-31 32,-62 51,-90 21,-31 42,-53 65,-81l76 -65c32,-22 53,-34 89,-52 196,-99 445,-78 620,53 167,125 245,296 245,513 0,22 -4,19 -4,39 -65,-15 -143,-6 -207,-1 6,25 19,15 69,29 29,9 45,15 71,26 217,87 233,326 243,348 15,-2 10,6 34,-42 9,-18 16,-31 25,-49 174,-362 63,-808 -230,-1066 -143,-126 -363,-224 -552,-224 -173,0 -291,13 -445,88 -63,31 -147,85 -200,132l-57 53c-33,38 -69,76 -97,119 -47,70 -43,68 -80,140 -47,93 -82,246 -82,359z"/>
   <path fill="darkorange" d="M1323 1491c0,117 121,132 155,84 34,-49 -23,-132 -106,-132 -26,0 -49,23 -49,48z"/>
   <path fill="darkorange" d="M1614 1443c51,-34 4,-134 -31,-150 -38,-17 -67,27 -27,94 12,22 33,50 58,56z"/>
  </g>
 </g>
</svg>
