<?xml version="1.0" standalone="no"?>
<!DOCTYPE svg PUBLIC "-//W3C//DTD SVG 20010904//EN"
 "http://www.w3.org/TR/2001/REC-SVG-20010904/DTD/svg10.dtd">
<svg version="1.0" xmlns="http://www.w3.org/2000/svg"
 width="512.000000pt" height="512.000000pt" viewBox="0 0 512.000000 512.000000"
 preserveAspectRatio="xMidYMid meet">
<metadata>
Created by potrace 1.14, written by Peter Selinger 2001-2017
</metadata>
<g transform="translate(0.000000,512.000000) scale(0.100000,-0.100000)"
fill="#000000" stroke="none">
<path d="M0 2560 l0 -2560 2560 0 2560 0 0 2560 0 2560 -2560 0 -2560 0 0
-2560z m2716 1575 l109 -66 159 -4 c87 -2 160 -6 163 -8 3 -4 -55 -43 -207
-137 -186 -115 -219 -140 -214 -155 4 -8 1 -15 -6 -15 -6 0 -8 5 -5 10 3 6 -1
10 -9 10 -8 0 -17 -4 -20 -9 -3 -5 -51 -35 -106 -67 -57 -34 -98 -64 -95 -71
2 -7 -1 -10 -8 -7 -16 6 -159 -90 -150 -101 5 -4 3 -5 -4 -1 -6 3 -58 -23
-115 -60 -57 -37 -132 -85 -167 -108 -97 -62 -343 -226 -370 -247 -13 -11 -28
-19 -33 -19 -4 0 -6 35 -3 78 3 42 8 202 11 354 6 265 7 279 28 301 23 26 153
140 232 205 l52 42 164 0 c233 0 242 2 356 76 53 34 104 63 113 63 9 1 65 -28
125 -64z m781 -47 c22 -18 75 -60 119 -93 43 -33 81 -62 84 -65 3 -3 43 -36
90 -74 47 -38 87 -71 90 -73 6 -5 28 -347 29 -448 1 -68 -2 -76 -53 -170 -30
-55 -62 -107 -70 -116 -9 -9 -16 -21 -16 -27 0 -8 -139 -12 -484 -14 -266 -2
-487 -6 -491 -9 -3 -4 -9 -32 -12 -63 -6 -54 -7 -56 -35 -56 -27 0 -29 3 -25
28 2 15 2 21 0 15 -6 -17 -13 -16 -35 4 -25 22 -25 100 0 119 14 11 12 12 -15
2 -28 -10 -33 -17 -36 -53 -3 -40 -4 -40 -5 8 -1 26 -6 47 -12 47 -5 0 -10 5
-10 11 0 5 5 7 10 4 6 -3 10 3 10 14 0 15 4 19 18 14 9 -4 -7 19 -37 50 -49
51 -76 69 -55 36 4 -6 6 -80 5 -163 l-2 -151 238 0 238 0 124 -110 c68 -60
136 -118 151 -128 19 -12 29 -29 34 -56 5 -36 22 -398 27 -586 l2 -80 -199 -3
c-109 -2 -250 0 -311 3 -101 6 -113 9 -113 25 0 11 5 22 10 25 6 3 10 16 10
28 -1 20 -2 21 -14 5 -16 -22 -26 -23 -26 -3 0 8 -4 15 -9 15 -5 0 -7 18 -4
40 4 27 2 40 -6 40 -7 0 -9 -10 -6 -27 6 -27 6 -27 -9 -9 -8 10 -17 24 -19 30
-2 6 -8 7 -13 3 -5 -4 -4 -11 2 -15 5 -4 21 -28 34 -54 14 -27 27 -48 30 -48
3 0 6 -168 8 -373 1 -204 6 -469 11 -587 5 -118 5 -219 1 -223 -4 -4 -13 6
-20 23 -8 19 -18 29 -26 26 -8 -3 -11 0 -8 9 3 7 -3 24 -14 37 -11 12 -39 47
-63 77 -27 34 -55 58 -74 63 -17 4 -171 8 -344 7 l-314 0 -24 27 c-12 15 -77
83 -144 151 l-121 125 6 281 c21 880 26 1095 32 1214 l6 131 131 94 c118 83
400 272 547 366 30 19 74 48 97 63 23 16 47 29 53 29 7 0 10 7 6 16 -3 9 -2
12 5 9 5 -4 15 -2 22 3 7 6 39 25 72 43 33 18 62 35 65 38 3 3 23 18 45 32 98
63 185 119 250 160 39 24 72 47 73 51 2 5 8 8 14 8 5 0 43 23 84 50 41 28 76
50 77 50 2 0 57 36 123 80 65 43 126 79 136 80 9 0 34 -15 55 -32z m-462 -148
c3 -6 -1 -7 -9 -4 -18 7 -21 14 -7 14 6 0 13 -4 16 -10z m-95 -80 c0 -5 -5
-10 -11 -10 -5 0 -7 5 -4 10 3 6 8 10 11 10 2 0 4 -4 4 -10z m-146 -65 c-4 -8
-11 -15 -16 -15 -6 0 -5 6 2 15 7 8 14 15 16 15 2 0 1 -7 -2 -15z m-24 -25
c13 -9 13 -11 0 -20 -8 -5 -19 -10 -25 -10 -5 0 -3 5 5 10 13 9 13 11 0 20 -8
5 -10 10 -5 10 6 0 17 -5 25 -10z m-65 -40 c-3 -5 -11 -10 -16 -10 -6 0 -7 5
-4 10 3 6 11 10 16 10 6 0 7 -4 4 -10z m-109 -592 c5 -7 7 -51 4 -98 l-5 -85
-8 78 c-5 43 -6 81 -3 84 3 4 1 12 -5 20 -7 8 -8 13 -1 13 5 0 13 -6 18 -12z
m-39 -2164 c-3 -3 -12 -4 -19 -1 -8 3 -5 6 6 6 11 1 17 -2 13 -5z"/>
<path d="M2780 3323 c0 -5 154 -7 343 -5 l342 3 58 -52 c45 -40 55 -54 45 -61
-9 -7 -8 -8 5 -4 13 4 36 -13 83 -60 36 -37 68 -64 71 -60 5 5 -153 161 -223
220 l-32 26 -346 0 c-190 0 -346 -3 -346 -7z"/>
<path d="M3120 3300 c179 -3 306 -8 282 -11 l-42 -6 42 1 c24 1 43 6 43 11 0
6 -115 10 -325 10 l-325 1 325 -6z"/>
<path d="M2780 3284 c0 -10 3 -44 7 -74 6 -47 8 -51 13 -25 5 27 9 30 44 30
22 0 41 5 43 13 3 6 20 12 39 12 27 0 34 4 34 19 0 16 8 21 43 24 23 2 5 4
-40 5 -46 1 -82 -1 -82 -5 4 -23 -3 -30 -25 -26 -17 4 -25 0 -29 -14 -4 -16
-5 -15 -6 3 0 11 -10 29 -21 39 -19 17 -20 17 -20 -1z m80 -49 c0 -8 -2 -15
-4 -15 -2 0 -6 7 -10 15 -3 8 -1 15 4 15 6 0 10 -7 10 -15z"/>
<path d="M3525 3225 c0 -14 5 -21 13 -18 6 3 12 9 12 13 0 4 -6 12 -12 18 -10
8 -13 5 -13 -13z"/>
<path d="M2882 3173 c3 -28 4 -28 78 -28 74 0 75 0 78 28 l3 27 -81 0 -81 0 3
-27z"/>
<path d="M3512 3150 c0 -14 2 -19 5 -12 2 6 2 18 0 25 -3 6 -5 1 -5 -13z"/>
<path d="M3628 3123 c7 -3 16 -2 19 1 4 3 -2 6 -13 5 -11 0 -14 -3 -6 -6z"/>
<path d="M2792 3090 c0 -19 2 -27 5 -17 2 9 2 25 0 35 -3 9 -5 1 -5 -18z"/>
<path d="M2655 3069 c-11 -17 1 -21 15 -4 8 9 8 15 2 15 -6 0 -14 -5 -17 -11z"/>
<path d="M3680 3060 c0 -18 -10 -19 -200 -17 -152 2 -200 5 -200 15 0 8 -23
12 -80 12 -64 0 -80 -3 -80 -15 0 -13 -21 -15 -127 -16 -71 0 -146 -4 -168 -9
-25 -6 126 -8 408 -5 439 4 477 6 477 35 0 4 -7 10 -15 14 -10 3 -15 -1 -15
-14z"/>
<path d="M3746 3050 c-17 -6 -18 -7 -3 -13 9 -3 19 -2 23 4 9 15 2 18 -20 9z"/>
<path d="M2724 3023 c9 -17 20 -35 26 -38 15 -9 12 -25 -4 -19 -8 3 -17 1 -21
-5 -3 -7 0 -8 9 -5 13 5 16 -1 16 -27 0 -42 6 -35 13 16 5 35 2 45 -25 75
l-30 35 16 -32z"/>
<path d="M2555 2242 c6 -4 21 -23 33 -42 16 -26 22 -30 22 -16 0 11 -7 28 -17
38 -13 14 -13 18 -2 18 14 0 39 -43 39 -66 0 -7 -5 -14 -12 -16 -8 -3 -6 -12
6 -29 l18 -24 -6 29 -7 29 45 -5 c43 -5 46 -4 46 17 0 13 -7 25 -15 29 -8 3
-15 1 -15 -4 0 -6 -11 -10 -24 -10 -21 0 -36 16 -36 41 0 5 80 10 178 12 l177
2 -220 3 c-121 1 -215 -2 -210 -6z"/>
<path d="M2780 1936 c0 -9 5 -16 10 -16 6 0 10 4 10 9 0 6 -4 13 -10 16 -5 3
-10 -1 -10 -9z"/>
<path d="M2823 1923 c9 -2 23 -2 30 0 6 3 -1 5 -18 5 -16 0 -22 -2 -12 -5z"/>
</g>
</svg>
